#!OML:ASF H:\Terrain\Patient Classification 1\Takeo\Monday\TakeoMonday.ASF
:FULLY-SPECIFIED
:DEGREES
743
root 3.07794 13.3648 1.96001 -175.29 60.7677 -189.038
lowerback 30.3438 -2.48886 4.01156
upperback 13.8368 -0.00961054 -1.92091
thorax -1.0167 1.13215 -4.4419
lowerneck -0.469295 -19.8939 -12.8951
upperneck -6.37931 -26.8115 22.6788
head 3.0823 -13.546 6.91007
rclavicle -5.56597e-014 0
rhumerus 36.8545 14.1671 -76.7823
rradius 17.0687
rwrist 20.8745
rhand -39.6408 54.5601
rfingers 7.12502
rthumb -12.6215 24.9614
lclavicle -5.56597e-014 0
lhumerus 7.95366 -5.50069 91.4436
lradius 79.6241
lwrist 33.6668
lhand -40.7031 20.2995
lfingers 7.12502
lthumb -13.6454 49.8322
rfemur -65.2328 -22.7462 11.805
rtibia 96.2294
rfoot -35.2765 -16.5847
rtoes -1.27271
lfemur -70.7681 16.6684 -27.845
ltibia 89.6675
lfoot -25.5495 1.48714
ltoes -23.9433
744
root 3.07581 13.4094 1.96611 -175.844 61.2933 -189.706
lowerback 30.132 -2.42063 3.55945
upperback 13.8663 -0.0664897 -1.91502
thorax -0.898006 1.0789 -4.15221
lowerneck -1.00538 -19.9268 -12.3479
upperneck -6.13848 -26.795 21.6399
head 2.99195 -13.4966 6.5244
rclavicle 3.97569e-014 4.77083e-015
rhumerus 36.1613 11.9117 -77.0346
rradius 16.568
rwrist 21.4992
rhand -39.5524 54.3636
rfingers 7.12502
rthumb -12.5363 24.7597
lclavicle 3.97569e-014 4.77083e-015
lhumerus 7.75107 -5.27703 91.6728
lradius 79.8614
lwrist 33.625
lhand -39.9802 20.0969
lfingers 7.12502
lthumb -12.9487 49.6751
rfemur -65.1608 -22.3538 11.4285
rtibia 95.9354
rfoot -35.4613 -15.6865
rtoes 0.322291
lfemur -70.5804 16.7269 -27.753
ltibia 89.3928
lfoot -25.5817 -0.360473
ltoes -16.6001
745
root 3.07089 13.4582 1.97479 -176.283 61.6763 -190.129
lowerback 30.0086 -2.39963 3.55822
upperback 13.8744 -0.0626831 -2.06769
thorax -0.832058 1.08502 -4.31996
lowerneck -1.29616 -19.991 -11.522
upperneck -5.89518 -26.8512 20.7569
head 2.86631 -13.51 6.16964
rclavicle 4.77083e-014 -1.19271e-014
rhumerus 35.2956 8.41652 -78.1651
rradius 15.8256
rwrist 23.3252
rhand -40.005 53.9078
rfingers 7.12502
rthumb -12.9726 24.3311
lclavicle 4.77083e-014 -1.19271e-014
lhumerus 7.52367 -5.75983 91.5302
lradius 80.0307
lwrist 34.1065
lhand -40.0856 20.1885
lfingers 7.12502
lthumb -13.0503 49.7603
rfemur -65.0076 -22.1574 11.3151
rtibia 95.5796
rfoot -35.3247 -15.6754
rtoes -0.426561
lfemur -70.3191 16.7341 -27.5738
ltibia 89.0675
lfoot -25.363 -1.44829
ltoes -11.4368
746
root 3.07071 13.4914 1.98649 -176.698 62.0574 -190.539
lowerback 29.8795 -2.39863 3.516
upperback 13.8626 -0.100489 -2.26233
thorax -0.79039 1.06792 -4.4988
lowerneck -1.26382 -19.9115 -11.0138
upperneck -5.90475 -26.7278 20.4652
head 2.72791 -13.4607 6.07162
rclavicle 1.35174e-014 -7.15625e-015
rhumerus 34.6303 4.76851 -79.4177
rradius 14.9631
rwrist 25.3475
rhand -40.559 53.7769
rfingers 7.12502
rthumb -13.5066 24.2349
lclavicle 1.35174e-014 -7.15625e-015
lhumerus 7.36631 -6.06665 91.075
lradius 79.808
lwrist 33.9136
lhand -39.2922 21.2312
lfingers 7.12502
lthumb -12.2854 50.8503
rfemur -64.9831 -22.0563 11.2564
rtibia 95.2804
rfoot -35.1402 -15.3949
rtoes -0.405362
lfemur -70.0489 16.9185 -27.6224
ltibia 88.7535
lfoot -25.1113 -1.38553
ltoes -10.8935
747
root 3.07628 13.52 1.99689 -176.901 62.472 -190.56
lowerback 29.9839 -2.46081 3.36268
upperback 13.83 -0.22511 -2.18029
thorax -0.887778 0.987329 -4.2845
lowerneck -1.38618 -19.7968 -11.2179
upperneck -5.71709 -26.5701 20.1455
head 2.7562 -13.3612 6.01165
rclavicle -2.3059e-014 1.98785e-015
rhumerus 34.0978 1.72264 -80.0719
rradius 14.2585
rwrist 26.9903
rhand -40.8715 53.4887
rfingers 7.12502
rthumb -13.8078 23.967
lclavicle -2.3059e-014 1.98785e-015
lhumerus 7.02032 -5.83982 90.7789
lradius 79.7286
lwrist 33.6939
lhand -38.3681 21.543
lfingers 7.12502
lthumb -11.3943 51.2134
rfemur -64.6866 -21.7005 11.2365
rtibia 94.9689
rfoot -35.1725 -14.7083
rtoes 0.956218
lfemur -69.6861 17.3798 -27.5044
ltibia 88.4781
lfoot -24.902 -1.68779
ltoes -9.63307
748
root 3.08373 13.5506 1.99938 -176.931 62.8044 -190.234
lowerback 30.2414 -2.514 3.45913
upperback 13.844 -0.24431 -1.97891
thorax -0.988275 0.974037 -4.1145
lowerneck -1.82935 -19.8434 -11.3919
upperneck -5.28458 -26.6322 19.6895
head 2.91254 -13.3452 5.83379
rclavicle 2.14687e-014 2.38542e-015
rhumerus 33.3031 -0.922627 -79.7044
rradius 14.1013
rwrist 27.5246
rhand -41.0794 52.677
rfingers 7.12502
rthumb -14.0081 23.169
lclavicle 2.14687e-014 2.38542e-015
lhumerus 6.61819 -5.90679 91.0314
lradius 80.2096
lwrist 34.3187
lhand -38.905 21.5646
lfingers 7.12502
lthumb -11.9121 51.2058
rfemur -64.1667 -21.4459 11.3671
rtibia 94.5784
rfoot -35.1087 -14.4604
rtoes 0.541647
lfemur -69.1193 17.6714 -27.1844
ltibia 88.1851
lfoot -24.8908 -1.46098
ltoes -9.80768
749
root 3.08952 13.5809 2.01479 -177.103 63.3341 -190.483
lowerback 29.9917 -2.3417 3.21236
upperback 13.8242 -0.125261 -1.9133
thorax -0.890316 1.00841 -3.93046
lowerneck -1.74086 -19.7876 -11.738
upperneck -5.36346 -26.5583 19.9193
head 2.94598 -13.31 5.94957
rclavicle 3.10104e-014 7.67309e-014
rhumerus 32.3151 -2.92295 -78.6643
rradius 14.2275
rwrist 26.8881
rhand -41.4636 51.9275
rfingers 7.12502
rthumb -14.3783 22.4455
lclavicle 3.10104e-014 7.67309e-014
lhumerus 6.22172 -6.25417 91.2568
lradius 80.8291
lwrist 35.3135
lhand -39.7657 21.7378
lfingers 7.12502
lthumb -12.7419 51.329
rfemur -64.3038 -21.1715 11.4998
rtibia 94.3025
rfoot -34.968 -14.2792
rtoes -0.266497
lfemur -68.852 17.7827 -27.0302
ltibia 87.8716
lfoot -24.9165 -0.962353
ltoes -10.3939
